<svg width="25" height="25" viewBox="0 0 25 25" fill="none" xmlns="http://www.w3.org/2000/svg">
<path d="M24.2188 12.1094C24.2188 18.7972 18.7972 24.2188 12.1094 24.2188C5.42153 24.2188 0 18.7972 0 12.1094C0 5.42153 5.42153 0 12.1094 0C18.7972 0 24.2188 5.42153 24.2188 12.1094ZM17.3022 10.3843C17.5433 8.773 16.3163 7.90679 14.6386 7.32896L15.1829 5.14624L13.8541 4.81514L13.3243 6.94033C12.975 6.85327 12.6162 6.77119 12.2597 6.68984L12.7933 4.55068L11.4653 4.21958L10.9207 6.40151C10.6315 6.33564 10.3477 6.27056 10.0722 6.2021L10.0737 6.19526L8.24121 5.73774L7.88774 7.15679C7.88774 7.15679 8.87363 7.38271 8.85283 7.39668C9.39102 7.53101 9.48828 7.88711 9.47197 8.16939L8.85205 10.656C8.88916 10.6654 8.93721 10.6791 8.99019 10.7002C8.9459 10.6893 8.89858 10.6771 8.84976 10.6654L7.98081 14.1487C7.91494 14.3122 7.74805 14.5574 7.37187 14.4644C7.38511 14.4836 6.40605 14.2233 6.40605 14.2233L5.74639 15.7441L7.47559 16.1751C7.79727 16.2558 8.11255 16.3401 8.42285 16.4196L7.87295 18.6272L9.2002 18.9583L9.74478 16.7741C10.0968 16.8695 10.4498 16.9611 10.8037 17.0489L10.261 19.2229L11.5897 19.554L12.1396 17.3504C14.4055 17.7792 16.1093 17.6062 16.8265 15.5571C17.4044 13.9072 16.7977 12.9555 15.6056 12.3349C16.4737 12.1348 17.1277 11.5638 17.3022 10.3843ZM14.2662 14.6411C13.8556 16.291 11.0773 15.399 10.1766 15.1754L10.9063 12.2506C11.807 12.4754 14.6954 12.9204 14.2662 14.6411ZM14.6772 10.3604C14.3025 11.8612 11.9901 11.0987 11.24 10.9118L11.9016 8.25913C12.6517 8.44605 15.0674 8.79492 14.6772 10.3604Z" fill="black"/>
</svg>
