<svg width="14" height="14" viewBox="0 0 14 14" fill="none" xmlns="http://www.w3.org/2000/svg">
<path d="M10.5 10.0001C10.9036 10.0388 11.3107 9.98781 11.6923 9.85074C12.0739 9.71366 12.4204 9.49391 12.7071 9.20722C12.9938 8.92053 13.2135 8.57399 13.3506 8.19243C13.4877 7.81086 13.5 7.00011 13.5 7.00011C13.5 7.00011 13.4877 6.18937 13.3506 5.8078C13.2135 5.42623 12.9938 5.0797 12.7071 4.79301C12.4204 4.50632 12.0739 4.28656 11.6923 4.14949C11.3107 4.01241 10.9036 3.9614 10.5 4.00011C7.75 4.00011 6.25 10.0001 3.5 10.0001C3.09641 10.0388 2.68925 9.98781 2.30769 9.85074C1.92612 9.71366 1.57958 9.49391 1.29289 9.20722C1.0062 8.92053 0.786451 8.57399 0.649375 8.19243C0.512299 7.81086 0.5 7.00011 0.5 7.00011C0.5 7.00011 0.512299 6.18937 0.649375 5.8078C0.786451 5.42623 1.0062 5.0797 1.29289 4.79301C1.57958 4.50632 1.92612 4.28656 2.30769 4.14949C2.68925 4.01241 3.09641 3.9614 3.5 4.00011C6.25 4.00011 7.75 10.0001 10.5 10.0001Z" stroke="black" stroke-linecap="round" stroke-linejoin="round"/>
</svg>
