<svg width="90" height="90" viewBox="0 0 90 90" fill="none" xmlns="http://www.w3.org/2000/svg">
<path d="M62.9977 28C59.0846 28 54.8187 30.0052 50.31 33.9549C48.171 35.8264 46.3237 37.8316 44.9385 39.4358C44.9385 39.4358 44.9385 39.4358 44.9506 39.448V39.4358C44.9506 39.4358 47.138 41.8178 49.5565 44.3699C50.8569 42.8265 52.7286 40.724 54.8794 38.8282C58.8901 35.316 61.5028 34.5747 62.9977 34.5747C68.6248 34.5747 73.1942 39.0348 73.1942 44.5157C73.1942 49.9602 68.6126 54.4203 62.9977 54.4567C62.7425 54.4567 62.4143 54.4203 62.0011 54.3352C63.6418 55.0401 65.4041 55.5505 67.0813 55.5505C77.3868 55.5505 79.4043 48.83 79.538 48.3439C79.8418 47.1164 79.9998 45.8282 79.9998 44.5036C79.9998 35.4132 72.3677 28 62.9977 28Z" fill="url(#paint0_linear_1160_23375)"/>
<path d="M27.0021 61.0559C30.9154 61.0559 35.1811 59.0506 39.6899 55.1009C41.8288 53.2294 43.6762 51.2242 45.0614 49.62C45.0614 49.62 45.0614 49.62 45.0492 49.6079V49.62C45.0492 49.62 42.8619 47.2381 40.4433 44.6859C39.143 46.2294 37.2714 48.3318 35.1203 50.2276C31.1098 53.7398 28.4969 54.4811 27.0021 54.4811C21.3752 54.469 16.8057 50.0089 16.8057 44.528C16.8057 39.0835 21.3874 34.6234 27.0021 34.5869C27.2573 34.5869 27.5854 34.6234 27.9986 34.7085C26.358 34.0036 24.5958 33.4932 22.9187 33.4932C12.6129 33.4932 10.6077 40.2137 10.4618 40.6877C10.158 41.9273 10 43.2033 10 44.528C10 53.6426 17.6321 61.0559 27.0021 61.0559Z" fill="url(#paint1_linear_1160_23375)"/>
<path d="M67.0577 55.4047C61.7831 55.271 56.3021 51.1147 55.184 50.0817C52.2918 47.4081 45.6195 40.1771 45.0972 39.606C40.2116 34.125 33.5881 28 27.0012 28H26.9891H26.9769C18.9802 28.0365 12.2596 33.4566 10.4609 40.6876C10.5946 40.2136 13.2318 33.3594 22.9056 33.6025C28.18 33.7362 33.6854 37.9532 34.8156 38.9862C37.708 41.6598 44.3802 48.8907 44.9028 49.4619C49.7882 54.9307 56.4115 61.0558 62.9984 61.0558H63.0106H63.0227C71.0194 61.0194 77.7522 55.5991 79.5387 48.3682C79.3929 48.8421 76.7434 55.6356 67.0577 55.4047Z" fill="#29ABE2"/>
<defs>
<linearGradient id="paint0_linear_1160_23375" x1="54.1472" y1="30.1796" x2="77.2631" y2="54.1172" gradientUnits="userSpaceOnUse">
<stop offset="0.21" stop-color="#F15A24"/>
<stop offset="0.6841" stop-color="#FBB03B"/>
</linearGradient>
<linearGradient id="paint1_linear_1160_23375" x1="35.8526" y1="58.8762" x2="12.7366" y2="34.9386" gradientUnits="userSpaceOnUse">
<stop offset="0.21" stop-color="#ED1E79"/>
<stop offset="0.8929" stop-color="#522785"/>
</linearGradient>
</defs>
</svg>
