<svg width="90" height="90" viewBox="0 0 90 90" fill="none" xmlns="http://www.w3.org/2000/svg">
<path d="M83.8461 54.6511C78.5086 76.0665 56.8183 89.1436 35.3635 83.8028C13.9479 78.449 0.8919 56.7586 6.22944 35.3431C11.567 13.9276 33.2442 0.850533 54.6467 6.19131C76.1146 11.4666 89.1706 33.2225 83.8461 54.6511Z" fill="#63E493"/>
<path d="M61.5266 24C59.971 24 58.5267 24.8065 57.7118 26.1323L48.9324 39.1667C48.6464 39.5962 48.7624 40.1754 49.192 40.4614C49.5402 40.6935 50.0009 40.6648 50.318 40.392L58.9599 32.8966C59.1035 32.7674 59.3248 32.7805 59.4541 32.9241C59.5127 32.9899 59.5438 33.0749 59.5438 33.1622V56.6296C59.5438 56.8234 59.3871 56.979 59.1932 56.979C59.0891 56.979 58.991 56.9335 58.9252 56.8533L32.8022 25.5843C31.9514 24.5803 30.7022 24.0012 29.3871 24H28.4741C26.0031 24 24 26.0031 24 28.474V61.526C24 63.9969 26.0031 66 28.4741 66C30.0297 66 31.474 65.1935 32.2888 63.8677L41.0683 50.8333C41.3543 50.4038 41.2382 49.8246 40.8086 49.5386C40.4604 49.3065 39.9997 49.3352 39.6826 49.608L31.0408 57.1034C30.8972 57.2327 30.6758 57.2195 30.5466 57.0759C30.488 57.0101 30.4569 56.9251 30.4581 56.8378V33.3644C30.4581 33.1706 30.6148 33.015 30.8087 33.015C30.9116 33.015 31.0109 33.0605 31.0767 33.1407L57.1961 64.4157C58.0469 65.4197 59.2961 65.9988 60.6112 66H61.5242C63.9952 66.0012 65.9995 63.9993 66.0019 61.5284V28.474C66.0019 26.0031 63.9988 24 61.5278 24H61.5266Z" fill="#000008"/>
</svg>
