<svg width="201" height="60" viewBox="0 0 201 60" fill="none" xmlns="http://www.w3.org/2000/svg">
<path fill-rule="evenodd" clip-rule="evenodd" d="M58.6654 0H1.33313C0.979558 0 0.640449 0.14036 0.390537 0.39054C0.140356 0.640452 0 0.979558 0 1.3334V58.6656C0 59.0192 0.140356 59.3583 0.390537 59.6082C0.640449 59.8584 0.979558 59.9987 1.33313 59.9987H58.6654C59.0193 59.9987 59.3584 59.8584 59.6083 59.6082C59.8585 59.3583 59.9988 59.0192 59.9988 58.6656V1.3334C59.9988 0.979558 59.8585 0.640452 59.6083 0.39054C59.3584 0.14036 59.0193 0 58.6654 0ZM39.9991 38.6659C39.9991 39.0195 39.8588 39.3586 39.6086 39.6088C39.3587 39.8587 39.0196 39.9993 38.666 39.9993H21.3328C20.9793 39.9993 20.6402 39.8587 20.39 39.6088C20.1401 39.3586 19.9997 39.0195 19.9997 38.6659V21.3328C19.9997 20.9792 20.1401 20.6401 20.39 20.3902C20.6402 20.14 20.9793 19.9997 21.3328 19.9997H38.666C39.0196 19.9997 39.3587 20.14 39.6086 20.3902C39.8588 20.6401 39.9991 20.9792 39.9991 21.3328V38.6659Z" fill="#000008"/>
<path d="M178.696 20.002H161.363C160.626 20.002 160.029 20.5987 160.029 21.3351V38.6682C160.029 39.4046 160.626 40.0016 161.363 40.0016H178.696C179.432 40.0016 180.029 39.4046 180.029 38.6682V21.3351C180.029 20.5987 179.432 20.002 178.696 20.002Z" fill="#000008"/>
<path d="M141.355 0.00146484H158.688C159.424 0.00146484 160.021 0.598253 160.021 1.33486V18.6677C160.021 19.4041 159.424 20.0011 158.688 20.0011H141.355C140.619 20.0011 140.021 19.4041 140.021 18.6677V1.33486C140.021 0.598253 140.619 0.00146484 141.355 0.00146484Z" fill="#000008"/>
<path d="M198.688 0.00146484H181.355C180.619 0.00146484 180.021 0.598253 180.021 1.33486V18.6677C180.021 19.4041 180.619 20.0011 181.355 20.0011H198.688C199.424 20.0011 200.021 19.4041 200.021 18.6677V1.33486C200.021 0.598253 199.424 0.00146484 198.688 0.00146484Z" fill="#000008"/>
<path d="M141.355 40.0005H158.688C159.424 40.0005 160.021 40.5973 160.021 41.3336V58.6668C160.021 59.4031 159.424 60.0002 158.688 60.0002H141.355C140.619 60.0002 140.021 59.4031 140.021 58.6668V41.3336C140.021 40.5973 140.619 40.0005 141.355 40.0005Z" fill="#000008"/>
<path d="M198.688 40.0005H181.355C180.619 40.0005 180.021 40.5973 180.021 41.3336V58.6668C180.021 59.4031 180.619 60.0002 181.355 60.0002H198.688C199.424 60.0002 200.021 59.4031 200.021 58.6668V41.3336C200.021 40.5973 199.424 40.0005 198.688 40.0005Z" fill="#000008"/>
<path d="M111.331 0.00146484H128.664C129.401 0.00146484 129.998 0.598253 129.998 1.33486V18.6677C129.998 19.4041 129.401 20.0011 128.664 20.0011H111.331C110.595 20.0011 109.998 19.4041 109.998 18.6677V1.33486C109.998 0.598253 110.595 0.00146484 111.331 0.00146484Z" fill="#000008"/>
<path d="M128.664 40.0005H111.331C110.595 40.0005 109.998 40.5973 109.998 41.3336V58.6668C109.998 59.4031 110.595 60.0002 111.331 60.0002H128.664C129.401 60.0002 129.998 59.4031 129.998 58.6668V41.3336C129.998 40.5973 129.401 40.0005 128.664 40.0005Z" fill="#000008"/>
<path d="M109.607 20.3752C109.857 20.6251 109.997 20.9642 109.997 21.3178V38.6509C109.997 39.0045 109.857 39.3436 109.607 39.5938C109.357 39.8437 109.018 39.9843 108.664 39.9843H89.9977V58.6356C89.9977 58.9892 89.8571 59.3283 89.6072 59.5782C89.357 59.8284 89.0179 59.9687 88.6643 59.9687H71.3315C70.9776 59.9687 70.6385 59.8284 70.3886 59.5782C70.1384 59.3283 69.998 58.9892 69.998 58.6356V1.3334C69.998 0.979558 70.1384 0.640452 70.3886 0.39054C70.6385 0.14036 70.9776 0 71.3315 0H88.6643C89.0179 0 89.357 0.14036 89.6072 0.39054C89.8571 0.640452 89.9977 0.979558 89.9977 1.3334V19.9847H108.664C109.018 19.9847 109.357 20.125 109.607 20.3752Z" fill="#000008"/>
</svg>
